<svg width="64" height="64" viewBox="0 0 64 64" xmlns="http://www.w3.org/2000/svg"><g fill="none" fill-rule="evenodd"><path fill="#DBE8FD" fill-rule="nonzero" d="M0 0h64v64H0z"/><path d="M19.658 20c-.824 2.33-3.048 4-5.658 4-3.312 0-6-2.688-6-6s2.688-6 6-6c2.61 0 4.834 1.67 5.658 4H47c4.968 0 9 4.032 9 9s-4.032 9-9 9h-9.342c-.824 2.33-3.048 4-5.658 4-2.61 0-4.834-1.67-5.658-4H17c-2.76 0-5 2.24-5 5s2.24 5 5 5h27.342c.824-2.33 3.048-4 5.658-4 3.312 0 6 2.688 6 6s-2.688 6-6 6c-2.61 0-4.834-1.67-5.658-4H17c-4.968 0-9-4.032-9-9s4.032-9 9-9h9.342c.824-2.33 3.048-4 5.658-4 2.61 0 4.834 1.67 5.658 4H47c2.76 0 5-2.24 5-5s-2.24-5-5-5H19.658zM32 30c1.104 0 2 .896 2 2s-.896 2-2 2-2-.896-2-2 .896-2 2-2z" fill="#3273DC"/></g></svg>