<svg width="64" height="64" viewBox="0 0 64 64" xmlns="http://www.w3.org/2000/svg"><g fill-rule="nonzero" fill="none"><path fill="#DBE8FD" d="M0 0h64v64H0z"/><path d="M39.524 24.094l-8.762 8.95-4.43-4.246-2.472 2.478L30.762 38 42 26.57l-2.476-2.476zM32 13.088c5 3.61 9.11 4.584 14 4.832v19.15c0 6.084-3.372 7.654-14 14.214-10.618-6.556-14-8.13-14-14.214V17.92c4.894-.248 9-1.222 14-4.832zM32 8c-6.742 5.732-10.968 6-18 6v23.07c0 9.206 6.406 11.608 18 18.93 11.594-7.322 18-9.724 18-18.93V14c-7.032 0-11.258-.268-18-6z" fill="#3273DC"/></g></svg>