<svg width="64" height="64" viewBox="0 0 64 64" xmlns="http://www.w3.org/2000/svg"><g fill-rule="nonzero" fill="none"><path fill="#DBE8FD" d="M0 0h64v64H0z"/><path d="M32 8C18.746 8 8 18.746 8 32s10.746 24 24 24 24-10.746 24-24S45.254 8 32 8zM12 32c0-11.028 8.972-20 20-20s20 8.972 20 20c0 3.358-.842 6.52-2.31 9.302l-2.754-2.754c-1.324-1.322-2.004-3.162-1.86-5.028.274-3.534-.942-7.16-3.64-9.86-2.452-2.448-5.65-3.66-8.856-3.66-1.206 0-2.412.172-3.58.514l7.54 7.542c.82 3.778-4.66 9.32-8.484 8.484L20.516 29c-.344 1.168-.518 2.376-.518 3.584 0 3.204 1.212 6.404 3.658 8.852 2.704 2.702 6.328 3.916 9.864 3.642 1.864-.144 3.704.538 5.028 1.862l2.754 2.752C38.52 51.16 35.358 52 32 52c-11.028 0-20-8.972-20-20z" fill="#3273DC"/></g></svg>